<?xml version="1.0" standalone="no"?>
<!DOCTYPE svg PUBLIC "-//W3C//DTD SVG 20010904//EN"
 "http://www.w3.org/TR/2001/REC-SVG-20010904/DTD/svg10.dtd">
<svg version="1.0" xmlns="http://www.w3.org/2000/svg"
 width="1326.000000pt" height="1326.000000pt" viewBox="0 0 1326.000000 1326.000000"
 preserveAspectRatio="xMidYMid meet">
<metadata>
Created by potrace 1.14, written by Peter Selinger 2001-2017
</metadata>
<g transform="translate(0.000000,1326.000000) scale(0.100000,-0.100000)"
fill="#000000" stroke="none">
<path d="M0 6630 l0 -6630 6630 0 6630 0 0 6630 0 6630 -6630 0 -6630 0 0
-6630z m11060 735 l0 -1135 -135 0 -135 0 0 1005 0 1005 -985 0 -985 0 0 130
0 130 1120 0 1120 0 0 -1135z m-5976 323 c30 -79 113 -291 184 -473 71 -181
127 -333 125 -337 -2 -5 -44 -8 -93 -8 -74 0 -89 3 -95 18 -4 9 -44 124 -91
255 -80 229 -103 286 -104 260 0 -6 -41 -129 -91 -272 l-91 -261 -94 0 c-52 0
-94 2 -94 5 0 6 327 855 356 923 7 17 17 32 23 32 5 0 34 -64 65 -142z m938
122 c126 -39 191 -129 191 -266 0 -124 -52 -203 -169 -256 -39 -17 -73 -23
-171 -26 l-123 -4 -2 -192 -3 -191 -87 -3 -88 -3 0 286 0 285 190 0 c202 0
237 7 260 49 16 30 12 94 -8 117 -35 44 -58 49 -254 52 l-188 4 0 84 0 84 194
0 c165 0 203 -3 258 -20z m848 -11 c64 -31 110 -74 136 -127 29 -56 27 -203
-3 -258 -56 -105 -165 -154 -339 -154 l-104 0 0 -195 0 -196 -87 3 -88 3 0
280 0 280 197 5 c180 5 199 7 225 26 60 45 52 128 -17 168 -31 19 -55 21 -222
24 l-188 4 0 84 0 85 218 -3 c210 -3 219 -4 272 -29z m510 -269 l0 -301 -92 3
-93 3 -3 285 c-1 157 0 290 3 297 3 9 31 13 95 13 l90 0 0 -300z m835 148 c59
-84 111 -156 115 -161 3 -4 29 24 56 62 l49 70 113 1 113 0 -22 -32 c-13 -18
-64 -89 -114 -158 l-90 -125 -5 -230 -5 -230 -90 0 -90 0 -3 227 -2 228 -175
244 c-96 135 -175 247 -175 250 0 3 49 6 108 6 l108 0 109 -152z m-490 -718
l0 -85 -259 -3 c-201 -2 -261 1 -268 10 -9 16 -11 152 -1 161 4 4 124 6 267 5
l261 -3 0 -85z m-5255 -940 l0 -1000 990 0 990 0 0 -135 0 -135 -1125 0 -1125
0 0 1135 0 1135 135 0 135 0 0 -1000z m1328 188 l-3 -193 -90 0 -90 0 -3 109
-3 109 -64 -6 c-122 -12 -196 -49 -246 -122 -81 -119 -57 -342 44 -419 68 -52
101 -59 282 -65 l170 -6 0 -85 0 -85 -160 1 c-118 1 -177 6 -225 18 -233 63
-342 207 -344 451 -1 215 69 347 225 424 90 44 179 59 357 60 l152 1 -2 -192z
m630 173 c80 -24 126 -62 158 -127 34 -70 38 -186 7 -255 -23 -51 -70 -102
-119 -127 l-33 -17 89 -194 c50 -107 90 -200 90 -207 0 -11 -21 -14 -94 -14
l-93 0 -89 195 -89 195 -52 0 -53 0 0 -195 0 -195 -90 0 -90 0 0 285 0 285
190 0 c242 0 270 11 270 108 0 50 -29 88 -78 102 -20 5 -115 10 -209 10 l-173
0 0 85 0 85 199 0 c166 0 209 -3 259 -19z m822 -66 l0 -85 -140 0 -140 0 0
-110 0 -110 198 -2 197 -3 0 -80 0 -80 -195 -5 -195 -5 -3 -107 -3 -108 141 0
140 0 0 -90 0 -90 -230 0 -230 0 0 480 0 480 230 0 230 0 0 -85z m848 -383
c100 -257 182 -474 182 -480 0 -10 -24 -12 -92 -10 l-91 3 -89 250 c-48 138
-92 258 -96 268 -5 14 -34 -57 -102 -252 l-95 -271 -92 0 c-51 0 -93 3 -93 8
-1 21 367 952 376 952 6 0 92 -211 192 -468z m932 388 l0 -80 -287 2 -288 3
-3 64 c-2 35 -1 70 2 77 4 11 60 14 291 14 l285 0 0 -80z m888 -277 c-3 -349
-4 -359 -26 -408 -75 -163 -280 -235 -478 -170 -83 28 -144 80 -184 159 l-35
69 0 266 0 266 92 3 92 3 3 -260 3 -260 34 -35 c44 -45 87 -59 162 -54 63 5
97 23 133 72 20 26 21 42 24 367 l3 339 90 0 91 0 -4 -357z m630 338 c80 -24
126 -62 158 -127 34 -70 38 -186 7 -255 -23 -51 -70 -102 -119 -127 l-33 -17
89 -194 c50 -107 90 -200 90 -207 0 -11 -21 -14 -94 -14 l-93 0 -89 195 -89
195 -52 0 -53 0 0 -195 0 -195 -90 0 -90 0 0 285 0 285 190 0 c242 0 270 11
270 108 0 50 -29 88 -78 102 -20 5 -115 10 -209 10 l-173 0 0 85 0 85 199 0
c166 0 209 -3 259 -19z m822 -66 l0 -85 -135 0 -135 0 0 -110 0 -110 193 -2
192 -3 3 -82 3 -83 -196 0 -195 0 0 -110 0 -110 135 0 135 0 0 -90 0 -90 -227
2 -228 3 -3 478 -2 477 230 0 230 0 0 -85z m716 57 c93 -48 154 -132 154 -214
l0 -38 -84 0 -83 0 -9 32 c-11 39 -65 78 -106 78 -46 0 -95 -26 -112 -59 -26
-49 -20 -89 17 -125 27 -27 42 -34 93 -39 97 -10 165 -40 217 -96 80 -85 96
-196 45 -313 -34 -80 -121 -141 -222 -154 l-46 -7 0 85 0 85 45 18 c68 25 92
83 61 144 -22 41 -57 60 -130 70 -203 29 -314 177 -262 352 27 96 87 159 185
196 54 20 185 12 237 -15z m-3248 -624 l-3 -303 -90 0 -90 0 -3 303 -2 302 95
0 95 0 -2 -302z"/>
</g>
</svg>
